<?xml version="1.0" encoding="iso-8859-1"?>
<!-- Generator: Adobe Illustrator 19.0.0, SVG Export Plug-In . SVG Version: 6.00 Build 0)  -->
<svg version="1.1" id="Layer_1" xmlns="http://www.w3.org/2000/svg" xmlns:xlink="http://www.w3.org/1999/xlink" x="0px" y="0px"
	 viewBox="0 0 512.001 512.001" style="enable-background:new 0 0 512.001 512.001;" xml:space="preserve" height="49px">
<g>
	<g>
		<path d="M423.94,174.755c-0.98-3.188-2.068-6.314-3.238-9.386c15.188-18.311,32.11-44.064,32.11-67.942
			c0-30.759-24.934-55.693-55.693-55.693c-25.814,0-47.52,17.567-53.833,41.397c-26.537-12.04-56.683-16.359-86.861-11.049
			L234.268,0l-17.745,5.454C99.109,41.549,32.95,166.438,69.045,283.852c14.269,46.417,42.574,86.035,81.856,114.569
			c32.887,23.89,72.254,38.473,112.516,41.949v34.503H158.26v37.129h247.525v-37.129H300.548v-34.468
			c15.848-1.327,31.557-4.358,46.895-9.072l17.745-5.454l-22.158-72.083C410.37,323.536,446.194,247.146,423.94,174.755z
			 M397.121,78.863c10.253,0,18.564,8.312,18.564,18.564c0,10.252-8.312,18.564-18.564,18.564c-10.252,0-18.564-8.312-18.564-18.564
			C378.557,87.174,386.867,78.863,397.121,78.863z M312.039,105.572l-12.75,42.762l-34.569-28.215L312.039,105.572z
			 M282.107,404.058c-0.003,0-0.006,0-0.009,0c-38.863-0.001-77.707-12.672-109.376-35.677
			c-32.723-23.77-56.302-56.772-68.188-95.438c-14.545-47.314-9.756-97.535,13.485-141.407
			c20.312-38.343,52.548-67.747,91.938-84.261l10.98,35.717c-34.207,15.37-60.28,42.641-74.741,75.248l94.864-30.847l10.908,35.489
			l-9.113,54.592l19.782,32.764l26.616-8.182l1.797,90.083l-35.49,10.908l-14.547-47.319L217.356,303l-10.911-35.49l20.703-6.364
			l-19.782-32.762l-23.66,7.272l-14.546-47.319l-34.653,12.261c-2.428,20.038-0.798,40.897,5.516,61.436
			c22.254,72.392,94.804,115.465,167.515,102.671l10.979,35.713C306.51,402.837,294.325,404.058,282.107,404.058z M348.404,223.87
			l-23.658,7.273l-10.91-35.49l23.66-7.272l7.551-70.52c12.049,36.179,50.166,70.676,51.999,72.319l1.397,70.102l-35.49,10.908
			L348.404,223.87z"/>
	</g>
</g>
<g>
</g>
<g>
</g>
<g>
</g>
<g>
</g>
<g>
</g>
<g>
</g>
<g>
</g>
<g>
</g>
<g>
</g>
<g>
</g>
<g>
</g>
<g>
</g>
<g>
</g>
<g>
</g>
<g>
</g>
</svg>
